<svg xmlns="http://www.w3.org/2000/svg" width="499.354" height="264.796" viewBox="0 0 499.354 264.796"><path d="M-117.59-20.35c-1.43,1.43-3.74,1.87-4.4,2.97-4.07,1.54-15.07,8.69-20.02,9.46.11-1.54.66-2.64.66-4.18,0-.33-.11-.66-.11-1.1,1.21-.44,2.64-2.75,2.64-2.97v-.22c.77-.77.88-2.31.99-3.74,1.54-.44,1.76-2.09,2.2-3.63.11,0,.22.11.33.11.99,0,.77-1.21,1.76-1.21,3.19-8.91,10.45-19.25,14.85-27.06,2.2-3.96,5.06-7.26,6.82-11.66,1.87-.11,3.74-5.94,3.74-4.95v-.33a6.066,6.066,0,0,0,2.09-4.51c0-2.31-1.43-3.08-2.64-3.08-2.31,0-3.74,3.52-5.28,4.4-1.65.99-2.31,2.09-3.19,2.64-.33.33-1.21.22-1.54.55-1.1,1.1.44.77-2.64,3.19-1.76,1.32-2.86,2.09-4.29,3.19-2.09,1.65-4.18,3.63-6.27,5.28-4.4,2.86-6.82,6.16-9.57,7.92-1.43.88-1.54,2.64-3.08,3.19a27.241,27.241,0,0,0-6.93,6.82c-2.75.55-2.75,3.41-5.83,4.18,0,2.53-5.28,5.28-5.28,5.28-.33,2.09-1.87,2.53-3.08,3.74s-1.76,2.97-3.74,3.19c1.43-4.07,4.73-6.16,5.83-10.56a.4.4,0,0,0,.33.11c.99,0,.77-1.54,1.21-2.2.55-.77,1.76-1.43,2.09-2.2a25.384,25.384,0,0,0,1.1-3.08c.11-.55,1.1-.55,1.1-1.43,0-.33-.11-.77-.11-1.21a.992.992,0,0,1,.11-.55c1.87-.11,5.83-8.03,6.27-12.65-1.32-.88-1.32-2.86-3.19-3.19-5.72.44-7.81,6.16-12.65,7.92-.77.11-.55,1.21-.99,1.54-.66.44-1.54.11-2.2.55-1.1.88-1.54,1.87-2.64,2.64-1.98,1.54-5.39,2.75-5.72,4.73-4.84,2.97-7.92,9.02-11.11,9.57a29.985,29.985,0,0,1-5.28,5.28c-.44,1.32-2.42,1.1-2.64,2.64-1.21.22-1.87,1.87-2.31,1.87-.33,0-.44-.66-.44-.99,0-2.31,2.31-2.42,2.31-4.07,0-.11-.11-.22-.11-.33,0-1.32,4.07-6.49,5.28-8.69,1.43-2.53,3.63-5.17,3.74-8.91,1.54-.44,3.19-4.62,3.19-5.06s-.22-.88-.22-1.43c0-.88.88-.44,1.21-.99,1.21-1.87,1.54-6.27,1.54-8.36,0-1.98-.22-3.96-.44-6.38-1.76-.88-2.64-2.64-3.74-4.18a1.466,1.466,0,0,1-1.54-1.1c-2.31-.88-2.86-1.1-3.41-1.1a25.092,25.092,0,0,1-4.18.33c-1.32,0-2.75-.11-4.07-.11-3.52,0-6.82,1.76-10.34,2.2-2.64.33-3.52.33-6.16.55-3.3.33-9.35,1.32-9.46,3.19a3.394,3.394,0,0,0-.99-.11c-1.1,0-1.21.88-1.21,1.87s-.33,2.09,1.21,2.09c.55,0,.99-.11,1.32-.11a3.5,3.5,0,0,1,1.43.44c3.08,0,8.25-2.09,8.69-2.09,3.96-.55,5.94-.33,9.46-.99,3.08-.55,7.7-1.98,8.58-1.98.33,0,.55.11,1.1.11a19.971,19.971,0,0,0,2.2-.11c2.31,1.21,6.27,2.09,6.27,5.39,0,6.27-2.09,10.56-4.18,14.74-3.85,10.67-10.23,18.92-14.74,29.04-.66,1.1-1.54,1.98-2.2,3.19s-.99,3.63-1.54,4.18a3.074,3.074,0,0,0-1.21,2.42c0,.22.11.55.11.77-1.87.88-1.54,3.96-4.18,4.18v.66c0,1.98-1.87,3.19-2.09,4.07a12.021,12.021,0,0,0-.44,2.64c0,.77.22,3.3,1.87,3.3,3.19,0,6.49-3.3,6.49-4.62,0-.33-.11-.66-.11-.99,0-.99,2.31-1.54,2.31-2.97,0-.11-.11-.22-.11-.44,1.43,0,1.1-1.65,2.64-1.65.11-2.31,2.2-2.75,2.64-4.73.44-1.87,2.64-2.09,2.64-4.4v-.33c1.76-.22,1.54-2.31,3.19-2.64,1.98-3.63,6.38-5.61,8.47-9.57,2.97-.99,4.51-5.06,7.37-6.27,1.98-1.21,3.08-3.3,4.73-4.73.44-.44,1.1-.22,1.54-.55s.66-1.32,1.1-1.65,1.1-.11,1.54-.44c.99-.66,1.54-2.31,2.2-2.64,1.21-.77,1.1.22,3.08-1.65,1.32-1.21,2.64-2.75,3.74-3.63.88-.77,2.64-.33,2.64-1.76v-.44c.11-1.1,2.31-.11,2.64-.99-1.65,6.6-6.16,10.01-8.47,16.39-2.86,2.09-3.41,6.71-6.27,8.91v.44c0,1.21-1.21,2.09-1.65,2.75-.55.88-.66,2.09-.99,2.64-.22.33-.88.11-1.1.55a39.346,39.346,0,0,0-3.74,6.27c-2.2,1.1-2.2,4.4-4.18,5.83-.55,1.76-2.09,3.41-2.09,5.39,0,.55.11,1.98.99,1.98a5.9,5.9,0,0,0,5.28-2.64c2.53-1.65,5.17-3.19,5.83-6.27,5.72-2.31,8.91-9.35,9.02-9.57,1.54-1.54,2.09-2.09,3.19-3.08,1.54-.33,1.1-2.75,2.97-2.75.22,0,.44.11.66.11v-.44c0-1.54,5.94-7.04,9.57-9.13a14.851,14.851,0,0,1,2.09-3.63c4.62-1.1,7.04-7.92,9.68-7.92h.33a2.8,2.8,0,0,1-.22-.77c0,.11,3.85-3.85,6.05-4.51,0-1.54,2.2-2.64,3.19-4.29a2.147,2.147,0,0,0,.77.11c2.86,0,3.96-3.74,6.05-3.74a2.449,2.449,0,0,1,1.76-.88c.22,0,.33,0,.33.22,0,1.65-2.64,5.39-3.19,5.94-.33.44-.11.44-.44.99-1.98,3.3-4.73,6.16-6.38,9.57v.88a.5.5,0,0,1-.44.55h-.33c-.77,0-.33,1.54-.77,2.2-1.21,2.2-4.95,8.03-5.39,10.78-1.1.88-4.18,5.39-4.18,6.49,0,1.21-2.97,6.93-3.74,7.7-1.76,1.87-1.32,5.17-3.19,6.38-.55,1.87-1.65,4.4-1.65,5.28s1.21,1.43,1.21,2.53a1.4,1.4,0,0,1-.11.66,6.111,6.111,0,0,0,2.31.44c2.75,0,4.73-1.76,7.81-2.09a15.715,15.715,0,0,1,6.6-3.41c1.21-1.32,9.24-6.27,11.22-7.04,4.07-1.43,10.23-7.04,10.01-7.15v-.11c0-.66,1.1-4.51.99-4.73C-109.67-24.2-114.84-21.01-117.59-20.35Zm57.2,4.95c-3.74,2.75-9.57,6.49-14.63,7.48a9.218,9.218,0,0,1-5.72-1.1c.88-4.51,7.92-10.12,10.67-12.87s5.28-5.94,7.92-8.91c.55-.99.99-1.32.99-2.2.11-.55.33-.22.55-.44.77-1.21,1.21-5.06-.99-5.28-.77-1.54-2.64.11-3.19.44a6.114,6.114,0,0,1-2.64,2.64c-.88.77-2.09,1.1-2.09,2.64-1.65.55-2.2,2.09-3.19,3.19-3.19,3.41-9.68,9.79-11.77,13.86-2.64.88-4.62,2.86-6.82,4.29-2.53,1.43-5.06,2.53-7.48,4.18-4.51.88-8.8,4.51-14.19,2.64-.88-4.73,2.75-5.39,3.41-8.69,1.54-.66,6.49-8.25,7.48-9.57,1.21-1.1,3.19-2.64,3.52-4.62,2.53-2.31,5.72-3.85,5.28-8.91-1.21-.77-1.76-2.2-4.18-1.65-1.65-.22-1.54,1.32-2.09,2.09-.22,1.32-5.83,5.94-5.61,7.59-1.87,1.1-11.22,15.73-12.54,17.38-.77,1.98-.99,4.4-1.65,6.38,1.32,1.65,1.43,4.62,3.74,5.28,2.09,1.1,4.4.66,5.83.55.77-.11,1.76.11,2.64,0,4.4-.77,8.69-3.41,12.65-4.29a14.368,14.368,0,0,1,6.82-4.18c.88,1.65,1.54,3.41,3.19,4.18,2.42,0,4.95,1.1,7.37,1.1a15.147,15.147,0,0,1,4.29-.99c5.17-1.1,12.1-6.6,12.43-6.49s7.26-4.51,7.26-4.51-1.65-4.84-1.87-4.73C-55.33-18.7-58.74-16.72-60.39-15.4Zm46.42-6.71c-2.86,3.08-6.93,6.05-11.88,9.46-4.51,3.08-12.43,8.91-21.12,8.91-2.2,0-4.62-.33-4.62-3.85a25.617,25.617,0,0,1,1.1-6.16c2.42-.22,2.97-2.31,5.28-2.64.55-2.64,3.41-2.97,4.73-4.73a24.749,24.749,0,0,1,6.38-3.19c.11-.77.11-1.1,1.1-1.1.66-1.76,5.06-4.51,7.92-5.83,1.21-3.08,4.07-5.06,6.27-7.37C-11.44-46.2-6.16-53.24-2.42-63.36c0-1.32.99-1.65,1.54-2.64,1.65-3.3,3.3-9.79,3.3-12.65a15.655,15.655,0,0,0-1.1-4.84,2.148,2.148,0,0,1-.77.11c-1.21,0-1.65-.66-2.97-.66,0,1.65-6.05,3.63-9.02,6.38-9.57,8.91-10.23,12.98-16.28,17.93-.77,3.08-3.96,6.71-5.28,7.37a12.435,12.435,0,0,1-1.65,3.19c-4.73,6.82-9.46,14.08-13.75,21.12-.88,1.43-1.43,3.19-2.09,4.29-3.3,5.39-6.38,11.55-6.38,16.83,0,2.64.88,4.4,1.65,6.38a18.278,18.278,0,0,0,8.47,2.64c1.32,0,1.76-.55,4.73-.55,1.54-.33,5.61-2.2,6.6-2.2.11,0,.44.11.66.11,1.32,0,3.3-2.09,3.96-2.09.44,0,4.18-3.3,5.5-4.18,1.43,0,2.53-2.2,3.96-2.86,1.65-.77,6.6-6.71,6.6-6.49C-14.74-15.73-13.64-22-13.97-22.11ZM-3.74-77.44c.77,0,1.65.33,1.65,1.32,0,1.1-.99,2.2-.99,3.85a3.045,3.045,0,0,0,.11.99C-4.4-69.41-6.6-65.12-6.6-63.69c0,.44.11,1.1-.55.77-1.32,2.86-2.97,5.5-3.74,8.47-4.18,4.51-7.81,9.46-12.1,13.75-1.32,1.32-5.28,6.38-6.49,6.38-.11,0-.44-.11-.66-.11-3.3,1.76-11.99,11.44-15.95,11.44.88-.77,3.96-5.28,3.96-6.38,0,.44,1.32-2.86,1.32-2.86.77,0,2.42-3.08,2.42-3.52,0-.55,1.1-.33,1.1-.88,0-1.1,1.98-.99,2.64-5.61.22-.66,1.21-.22,1.65-.55.77-.77,2.09-5.39,5.72-7.37a8.307,8.307,0,0,1,4.84-6.38c0-1.98,1.54-1.98,1.54-3.74,0-.55,4.07-4.18,5.28-5.72,2.09-2.64,5.5-5.5,7.92-8.47C-6.6-75.57-5.39-77.44-3.74-77.44ZM35.09-30.69a2.459,2.459,0,0,0-.33-1.1c-1.76.44-3.41-.11-4.84,0a12.911,12.911,0,0,1-2.86-.11,28.992,28.992,0,0,0-4.18-8.47c-2.2-1.43-6.6-5.28-7.15-5.28-1.54,0-2.64-.55-3.85-.55-1.43,0-1.65.99-2.97.99a.292.292,0,0,1-.33-.33c0-2.2,5.17-6.49,6.05-6.49.22,0,.44.11.66.11-1.43,0,18.7-18.15,18.7-23.98,0-.11-1.43-2.97-3.08-2.97-2.64,0-4.51,4.4-5.39,6.27-1.65.77-3.3,1.32-3.74,3.19-1.76.55-1.87,2.75-3.74,3.19.11.33.22.44.22.66,0,.66-.77.88-1.21,1.43C12.54-58.08,7.26-54.45,3.3-48.29,1.98-46.31.22-44.99-.88-43.01c-4.18,6.16-6.49,9.68-12.21,21.12-.11.33-.77.55-.99,1.1-1.43,2.75-2.75,5.83-3.19,6.82-.55.88-.22,2.2-.55,3.19-.11.22-.99.77-1.1,1.1-.33,1.21,0,2.75-.44,4.18,1.1,4.29,3.52,7.48,8.25,7.48,5.94,0,9.68-2.75,15.95-3.74.88-1.87,3.63-1.65,4.84-3.19,2.2-.33,2.75-2.42,5.28-2.64,2.75-3.19,6.16-5.83,8.91-9.02.44-1.54.88-2.97,2.09-3.63.33-1.87.44-3.85,1.65-4.84.99-.33.77-.66,1.43-.66a9.481,9.481,0,0,0,3.74-.66C33.55-27.83,35.09-29.26,35.09-30.69ZM20.68-32.45c-.44.99-2.86.66-3.85.66-3.74,0-10.89-1.98-10.89-4.18,0-1.98,2.31-1.65,2.64-3.3,1.65,0,2.75-.55,4.07-.55,1.65,0,2.2,1.1,3.85,1.1.88,1.43,1.54,2.09,2.09,3.08A22.833,22.833,0,0,1,20.68-32.45ZM-13.2-6.71c0-2.86,1.21-4.4,1.76-6.71,3.19-6.16,5.72-12.87,10.01-17.93.44-.44.33-1.54.99-1.65,0,.22,2.86,1.76,4.29,4.29a49.792,49.792,0,0,0,17.93,3.19c-.33,2.09-2.09,2.86-2.09,5.28a39.041,39.041,0,0,1-3.74,3.63C14.08-13.75,11-11.99,8.58-9.68,5.94-9.02,3.41-8.25,1.76-6.6c-3.85,0-7.59,2.64-11,2.64C-10.67-3.96-13.2-4.4-13.2-6.71ZM87.12-17.49c-1.1,0-3.19,1.1-4.18,1.43a26.361,26.361,0,0,0-4.18,2.31c-4.62,3.41-13.31,7.04-19.14,7.37h-1.1c-1.54-.44-4.18-1.1-5.83-2.53,2.53-.88,3.85-2.86,6.38-3.74.66-1.43,2.2-1.87,3.19-3.08s2.09-3.52,3.63-4.29c.33-3.85,4.4-8.58,4.4-12.87.88-.99.66-2.86,1.1-3.63.22-.44.44-.22.44-1.1.11-2.09,0-3.52-1.54-4.73-3.63-.11-5.17,1.87-9.02,1.54-2.09,2.2-4.95,3.52-7.92,4.84-1.54,2.53-4.51,3.85-5.72,6.82-1.54.55-2.09,2.2-2.64,3.74-1.32.55-3.08,5.83-3.41,6.93,0,.33-.44.55-.44.55-.66,2.53,0,5.28.44,7.48-.22,1.98.66,4.95,3.19,5.28C48.95-2.31,55.33-.66,62.26-1.1c8.25-.55,22.88-9.24,24.53-11.88C87.12-13.53,87.12-17.27,87.12-17.49ZM65.56-35.97c.44,0,.44.66.55.99,0,2.09-1.21,3.74-2.2,5.28-1.98,3.19-6.27,10.78-9.57,13.42a22.833,22.833,0,0,1-3.19,2.09,9.658,9.658,0,0,1-4.29,1.1c.11-5.61,5.06-11.88,7.04-15.51,2.97-1.32,4.73-4.62,7.92-6.38C62.7-35.42,64.13-34.98,65.56-35.97Zm62.7,19.91c-4.18,3.08-9.79,8.03-15.95,8.69-3.52.33-6.82.11-8.91-1.1-.55-2.64,1.54-2.64,2.09-4.18,1.65-2.64,3.52-3.85,4.73-6.93.33-.44,1.1-.88,1.54-1.54.33-.55.11-2.09,1.1-2.09,0-2.2-2.09-3.3-1.65-5.83-.88-1.43-1.21-3.41-2.09-4.73-.44-2.86-.11-6.27-2.64-6.93-2.42-.77-1.98,1.32-2.53,1.98-.88.77-4.4,2.97-4.51,4.18-1.98.99-7.37,8.36-8.8,10.01-1.43,1.1-4.4,4.95-6.05,6.38-.11-.11,3.85,2.75,3.85,2.75,3.08-.88,12.21-13.97,15.4-14.74.99,1.43,1.43,4.62,1.65,6.93-3.3,3.19-4.95,7.04-7.92,10.56-.33,1.98-1.32,3.3-1.1,5.72.99,1.21,1.76,3.19,3.19,3.19.55.11.33.44.55.55a6,6,0,0,0,2.64.55,46.861,46.861,0,0,0,10.01.55c7.37-1.65,12.76-6.38,18.48-10.01.11.22,3.96-3.85,3.96-3.85s-1.43-4.29-1.43-4.18S129.91-17.49,128.26-16.06Zm44.77,0c-4.18,3.08-9.79,8.03-15.95,8.69-3.52.33-6.82.11-8.91-1.1-.55-2.64,1.54-2.64,2.09-4.18,1.65-2.64,3.52-3.85,4.73-6.93.33-.44,1.1-.88,1.54-1.54.33-.55.11-2.09,1.1-2.09,0-2.2-2.09-3.3-1.65-5.83-.88-1.43-1.21-3.41-2.09-4.73-.44-2.86-.11-6.27-2.64-6.93-2.42-.77-1.98,1.32-2.53,1.98-.88.77-4.4,2.97-4.51,4.18-1.98.99-7.37,8.36-8.8,10.01-1.43,1.1-4.4,4.95-6.05,6.38-.11-.11,3.85,2.75,3.85,2.75,3.08-.88,12.21-13.97,15.4-14.74.99,1.43,1.43,4.62,1.65,6.93-3.3,3.19-4.95,7.04-7.92,10.56-.33,1.98-1.32,3.3-1.1,5.72.99,1.21,1.76,3.19,3.19,3.19.55.11.33.44.55.55a6,6,0,0,0,2.64.55,46.861,46.861,0,0,0,10.01.55C165-3.74,170.39-8.47,176.11-12.1c.11.22,3.96-3.85,3.96-3.85s-1.43-4.29-1.43-4.18S174.68-17.49,173.03-16.06Zm-.44,13.2c2.42,1.43,6.71,1.1,10.56,1.1.66-.22.99-.77,2.09-.55a32.076,32.076,0,0,1,4.18-1.54c1.1-.44,3.3-1.54,3.74-1.65.55,0,.22-.33.55-.44,1.32-.66,2.97-.99,4.18-1.65,1.32-.66,2.31-2.53,4.18-2.09-.33,1.21-.22,2.86-1.54,3.19-.88.66,0,3.08-1.54,3.19,0,1.54-1.43,1.76-1.65,3.08-2.31,5.61-4.84,11-7.37,16.39a40.45,40.45,0,0,1-6.38,3.74c-.66.33-1.43.11-2.09.55-.44.22-.55,1.21-.99,1.54-.66.33-1.65.22-2.2.55-.33.22-1.1.77-1.54.99-1.1.66-2.09,1.43-3.19,2.2-3.3,2.09-6.05,4.62-9.46,6.27-1.65,2.75-4.84,4.29-6.38,6.38-1.21,1.65-2.42,2.75-3.63,4.18-2.64,1.65-2.97,5.5-6.38,6.38-.33,1.54-1.1,2.75-1.54,4.18a7.991,7.991,0,0,0-3.74,4.29c-.88,1.87-2.86,2.75-3.19,5.28-2.64,2.86-3.63,7.48-6.27,10.56-.22,2.97-1.65,4.62-2.2,7.37a26.471,26.471,0,0,0,2.2,12.1c3.3,1.76,7.81.22,11.55-.55,1.87-1.21,2.86-3.41,5.83-3.63a9.565,9.565,0,0,1,1.54-3.19c3.52-1.43,5.17-4.73,7.92-6.82a14.637,14.637,0,0,0,1.1-3.74c1.76-.22,2.31-1.54,3.74-2.09-.11-3.3,3.08-3.3,3.08-6.38,1.76.33,1.65-1.87,2.2-2.64,0,0,.44-.44.44-.55a7.561,7.561,0,0,0,1.65-2.64c2.53-4.07,5.06-8.25,7.37-12.65,1.54-1.65,1.54-4.84,3.74-5.83.77-2.53,2.31-4.29,3.08-6.82a22.888,22.888,0,0,0,3.19-6.82c1.87-1.54,2.09-4.73,3.74-6.38,3.85-2.09,7.81-4.51,12.1-6.38,4.4-1.76,8.8-4.4,13.2-6.27.22-1.1,2.86,0,3.19-.99a28.524,28.524,0,0,1,7.37-2.64,65.713,65.713,0,0,1,11.11-2.64c2.75-.44,5.17-1.21,4.73-4.73-2.64-2.09-4.29.66-8.47,0C234.3-.11,231.33-.22,229.02.44c-7.81,2.09-14.63,5.94-21.67,8.69a28.422,28.422,0,0,0-5.28,2.31c-1.32.33-3.3,2.64-4.73,1.1-.77-2.42,1.76-1.43,1.65-3.19.44-1.1.99-2.09,1.54-3.19.99-2.42,1.43-5.28,3.74-6.38-.44-1.87.88-2.2.44-4.18,2.31-.55,2.86-2.86,3.19-5.28,3.74-3.08,5.28-8.47,9.02-11.66,2.86-3.96,7.04-6.6,8.47-12.1-1.32-.44-.66-2.97-2.64-2.64-2.64-.44-2.42,1.76-3.74,2.64a7.622,7.622,0,0,0-3.19,3.74c-2.64,2.75-5.17,6.38-7.92,8.36a13.345,13.345,0,0,1-1.54,1.1c-1.32.88-3.52,1.87-4.29,2.64-.44.44-1.1.66-1.54,1.1a12.083,12.083,0,0,0-1.54.99,5.976,5.976,0,0,1-3.19,1.65c-3.3,2.2-7.37,3.52-11.66,4.73-.77.88-3.08,1.54-4.18.55-.11-2.86,2.31-3.3,3.19-5.28,1.32-1.54,4.18-5.39,5.5-6.93,2.31-3.52,6.38-5.17,7.92-9.46a31.861,31.861,0,0,0-2.09-3.19c-2.64-.55-3.85.66-4.73,1.1-.22,0-.33.88-.55.99-.44.22-1.21,1.54-1.65,1.76s-.99,1.32-2.09,1.1a6.75,6.75,0,0,1-2.09,3.19c-.22.11-.88-.22-1.1,0-.11.11-.22.77-.44.99a4.352,4.352,0,0,1-1.65,1.1c.11,1.21-2.75,4.95-3.41,5.5-.77.66-1.98,4.51-2.75,5.06C173.25-9.68,170.94-6.6,172.59-2.86Zm12.65,27.5c.44,0,.44.66.55,1.1a33.274,33.274,0,0,0-4.29,8.36c-2.2,1.87-2.53,5.61-4.73,7.48-.33,2.31-2.09,4.4-3.19,6.27-1.1,1.98-1.98,3.96-3.19,5.83-1.1,1.87-2.53,3.52-3.63,5.28-1.21,1.87-1.65,4.18-3.74,5.28a33.774,33.774,0,0,1-4.73,7.37c-.88,1.1-2.31,2.09-3.19,3.19-.55.66-.77,2.86-2.64,3.19-1.21,2.75-4.73,3.3-5.83,6.27-3.3.55-4.73,3.08-8.91,2.64-2.2-2.86-1.21-7.04-.55-11a61.076,61.076,0,0,1,5.28-11.11c1.87-3.3,4.29-6.38,5.83-10.01,1.1-.33,1.43-1.43,2.09-2.2.66-.66,1.76-.99,2.09-2.09,1.32-1.32,1.98-3.3,3.74-4.18a84.62,84.62,0,0,1,12.65-11.66c2.64-2.53,6.27-4.29,9.46-6.27,1.32-1.43,3.3-2.09,4.84-3.19C184.25,25.41,184.47,24.75,185.24,24.64Z" transform="translate(241.093 129.227) rotate(-11)" fill="#9ec1b8"/></svg>