<svg xmlns="http://www.w3.org/2000/svg" width="24.815" height="25.647" viewBox="0 0 24.815 25.647">
  <g id="カートのアイコン素材" transform="translate(-8.297)">
    <path id="パス_4278" data-name="パス 4278" d="M29.225,0a1.026,1.026,0,0,0-.994.77L27.215,4.705H9.322a1.026,1.026,0,0,0-.986,1.31l2.947,10.225a1.026,1.026,0,0,0,.986.742H24.047L23.6,18.7H12.359v1.81H24.21a1.026,1.026,0,0,0,.994-.77L29.831,1.81h3.281V0ZM25.409,11.7l-.9,3.469H22.253V11.7h3.156Zm1.339-5.189-.872,3.379H22.253V6.515Zm-6.3,5.189v3.469H16.582V11.7h3.861Zm0-5.189V9.894H16.582V6.515Zm-5.381,0V9.894H11.338l-.974-3.379Zm0,5.189v3.469h-2.2l-1-3.469h3.2Z"/>
    <path id="パス_4279" data-name="パス 4279" d="M89.105,436.688a1.835,1.835,0,1,0,1.835,1.835A1.835,1.835,0,0,0,89.105,436.688Z" transform="translate(-75.018 -414.814)"/>
    <path id="パス_4280" data-name="パス 4280" d="M264.883,438.728a1.835,1.835,0,1,0,1.835,1.835A1.835,1.835,0,0,0,264.883,438.728Z" transform="translate(-241.991 -416.751)"/>
  </g>
</svg>
