<svg xmlns="http://www.w3.org/2000/svg" width="140" height="140" viewBox="0 0 140 140"><g transform="translate(-400 -8029)"><circle cx="70" cy="70" r="70" transform="translate(400 8029)" fill="#85a898"/><g transform="translate(430 8002.943)"><path d="M90.783,144.056a1.746,1.746,0,0,0,.257-1.492,1.947,1.947,0,0,0-.832-1.34,2.333,2.333,0,0,0-1.754-.207l-2.384.477.763,3.84,2.326-.46A2.61,2.61,0,0,0,90.783,144.056Z" transform="translate(-68.578 -57.165)" fill="#fff"/><path d="M79.288,94.091c-.332-.07-.646-.135-.927-.2-3.093-.8-4.629-1.283-5.7-3.36L68.62,82.353a9.167,9.167,0,0,0-7.417-4.51H53.957v-5.57a3.02,3.02,0,0,0-3.015-3.024L2.835,69.3A2.86,2.86,0,0,0,0,72.29V114a3.02,3.02,0,0,0,3.015,3.015h5.26a11.451,11.451,0,0,0,22.677,0H50.12A2.727,2.727,0,0,0,50.5,117a11.453,11.453,0,0,0,22.681.018h7.532A5.289,5.289,0,0,0,86,111.733v-9.061C86,95.5,81.962,94.651,79.288,94.091ZM8.4,91.953l1.05,5.285L6.5,97.824,3.9,84.7l9.174-1.82.469,2.368-6.222,1.23.615,3.1,5.33-1.058.471,2.36Zm11.209,27.695A4.243,4.243,0,1,1,23.86,115.4,4.243,4.243,0,0,1,19.614,119.648Zm4.869-25.4-.064-.033a1.675,1.675,0,0,1-.736-.955A8.127,8.127,0,0,1,23.322,92l-.178-.9a1.888,1.888,0,0,0-.728-1.248,1.81,1.81,0,0,0-1.414-.2l-2.226.441,1.009,5.086-2.954.586-2.606-13.12,5-.992a5.6,5.6,0,0,1,3.735.336,3.656,3.656,0,0,1,1.884,2.665,3.075,3.075,0,0,1-.2,1.923,3.614,3.614,0,0,1-.963,1.23,2.774,2.774,0,0,1,1.482.777,3.8,3.8,0,0,1,.929,1.927l.184.935a4.588,4.588,0,0,0,.351,1.037,1.38,1.38,0,0,0,.574.668l.088.045.094.482Zm4.178-.83L26.055,80.3l9.1-1.806.469,2.368-6.15,1.23.556,2.8,5.268-1.048.469,2.37L30.5,87.238l.642,3.223,6.15-1.23.471,2.368Zm10.274-2.04-2.6-13.12,9.1-1.806.469,2.368-6.15,1.23.553,2.794L45.569,81.8l.471,2.368-5.268,1.048.64,3.223,6.15-1.23.471,2.368Zm22.91,28.273a4.243,4.243,0,1,1,4.245-4.244A4.243,4.243,0,0,1,61.845,119.648ZM53.957,93.442V82.177h5.551a7.215,7.215,0,0,1,5.74,3.485l3.592,7.273c.094.178.191.348.291.508Z" transform="translate(0 0)" fill="#fff"/></g></g></svg>