<svg xmlns="http://www.w3.org/2000/svg" width="140" height="140" viewBox="0 0 140 140"><g transform="translate(-1380 -8029)"><circle cx="70" cy="70" r="70" transform="translate(1380 8029)" fill="#85a898"/><path d="M69.835,26.144c-1.073-3.357-6.98-4.128-13.235-4.951a27.663,27.663,0,0,1-8.5-1.829,27.719,27.719,0,0,1-4.3-7.558C41.151,6.09,38.638.7,35.116.689L35.051.678c-3.476.059-6.024,5.386-8.725,11.041a28.208,28.208,0,0,1-4.36,7.528,28.115,28.115,0,0,1-8.527,1.738C7.19,21.745,1.272,22.458.171,25.8S3.384,33.24,7.959,37.576a28.078,28.078,0,0,1,5.8,6.478,27.886,27.886,0,0,1-.973,8.64c-1.212,6.179-2.357,12.029.476,14.121a4.11,4.11,0,0,0,2.535.708c2.892-.046,7.052-2.3,11.08-4.478a27.78,27.78,0,0,1,7.951-3.522,27.532,27.532,0,0,1,7.923,3.593c4.113,2.283,8.369,4.647,11.265,4.6a3.945,3.945,0,0,0,2.305-.7c2.85-2.053,1.764-7.9.619-14.1a28.41,28.41,0,0,1-.891-8.655,28.311,28.311,0,0,1,5.866-6.42C66.541,33.55,70.9,29.507,69.835,26.144Z" transform="translate(1415.003 8064.802)" fill="#fff"/></g></svg>