<?xml version="1.0" encoding="UTF-8"?> <svg xmlns="http://www.w3.org/2000/svg" id="Capa_1" data-name="Capa 1" viewBox="0 0 47.02 47.02"><defs><style>.cls-1{fill:#fff;}</style></defs><title>sale</title><path class="cls-1" d="M45.4,25.8,21.18,1.61a5.48,5.48,0,0,0-4-1.6L4.41.33A4.22,4.22,0,0,0,.3,4.45L0,17.16a5.5,5.5,0,0,0,1.63,4L25.85,45.38a5.51,5.51,0,0,0,7.8,0L45.41,33.65A5.57,5.57,0,0,0,45.4,25.8Zm-36.75-11a4.33,4.33,0,1,1,6.12,0A4.33,4.33,0,0,1,8.65,14.81Zm8.17,7.41a4.81,4.81,0,0,1-1.17-1.8l1.21-.75a4.37,4.37,0,0,0,1,1.64c.55.54,1.06.6,1.4.25s.26-.76-.15-1.62c-.57-1.17-.67-2.21.09-3s2.32-.85,3.57.38a4.6,4.6,0,0,1,1.08,1.59l-1.22.7a3.64,3.64,0,0,0-.85-1.34c-.52-.51-1-.52-1.27-.24s-.18.77.24,1.7c.59,1.27.55,2.19-.18,2.93C19.7,23.57,18.27,23.65,16.82,22.22Zm5.78,5.54L23.53,26,22,24.51l-1.71,1-1.24-1.22,6.82-3.69,1.57,1.55L23.88,29Zm1.6,1.58,5.2-5.28,1.2,1.18-4.22,4.28,2.1,2.07-1,1Zm11.11,2.48-2.06-2-1.08,1.09,1.94,1.92-1,1-1.94-1.92L30,33.11l2.17,2.14-1,1L27.81,32.9,33,27.63l3.25,3.21Z"></path><path class="cls-1" d="M23.07,23.79l1.16,1.15,1.5-2.74Z"></path></svg> 